<svg xmlns="http://www.w3.org/2000/svg" xmlns:xlink="http://www.w3.org/1999/xlink" viewBox="0 0 738 348" width="738" height="348"><path d="M 287.500,20.406 C 287.500,23.406 287.500,23.406 287.500,26.406" stroke-width="5.512" stroke="black" fill="none" stroke-linecap="round"></path><path d="M 287.500,26.406 C 287.500,36.906 288.011,36.932 287.500,47.406" stroke-width="3.160" stroke="black" fill="none" stroke-linecap="round"></path><path d="M 287.500,47.406 C 287.011,57.432 286.102,57.380 285.500,67.406" stroke-width="2.728" stroke="black" fill="none" stroke-linecap="round"></path><path d="M 285.500,67.406 C 284.602,82.380 284.826,82.403 284.500,97.406" stroke-width="2.202" stroke="black" fill="none" stroke-linecap="round"></path><path d="M 284.500,97.406 C 284.326,105.403 284.750,105.414 284.500,113.406" stroke-width="2.693" stroke="black" fill="none" stroke-linecap="round"></path><path d="M 284.500,113.406 C 284.250,121.414 284.297,121.434 283.500,129.406" stroke-width="2.831" stroke="black" fill="none" stroke-linecap="round"></path><path d="M 283.500,129.406 C 282.297,141.434 281.464,141.362 280.500,153.406" stroke-width="2.810" stroke="black" fill="none" stroke-linecap="round"></path><path d="M 280.500,153.406 C 279.464,166.362 280.134,166.413 279.500,179.406" stroke-width="2.372" stroke="black" fill="none" stroke-linecap="round"></path><path d="M 279.500,179.406 C 279.134,186.913 278.875,186.900 278.500,194.406" stroke-width="2.718" stroke="black" fill="none" stroke-linecap="round"></path><path d="M 278.500,194.406 C 277.875,206.900 277.821,206.903 277.500,219.406" stroke-width="2.508" stroke="black" fill="none" stroke-linecap="round"></path><path d="M 277.500,219.406 C 277.321,226.403 277.832,226.430 277.500,233.406" stroke-width="2.776" stroke="black" fill="none" stroke-linecap="round"></path><path d="M 277.500,233.406 C 277.332,236.930 276.660,236.882 276.500,240.406" stroke-width="3.518" stroke="black" fill="none" stroke-linecap="round"></path><path d="M 276.500,240.406 C 276.160,247.882 276.500,247.906 276.500,255.406" stroke-width="3.130" stroke="black" fill="none" stroke-linecap="round"></path><path d="M 276.500,255.406 C 276.500,260.406 276.500,260.406 276.500,265.406" stroke-width="3.355" stroke="black" fill="none" stroke-linecap="round"></path><path d="M 276.500,265.406 C 276.500,269.406 276.500,269.406 276.500,273.406" stroke-width="3.715" stroke="black" fill="none" stroke-linecap="round"></path><path d="M 276.500,273.406 C 276.500,277.406 276.500,277.406 276.500,281.406" stroke-width="3.739" stroke="black" fill="none" stroke-linecap="round"></path><path d="M 276.500,281.406 C 276.500,283.906 276.500,283.906 276.500,286.406" stroke-width="4.751" stroke="black" fill="none" stroke-linecap="round"></path><path d="M 276.500,286.406 C 276.500,290.406 276.500,290.406 276.500,294.406" stroke-width="4.869" stroke="black" fill="none" stroke-linecap="round"></path><path d="M 276.500,294.406 C 276.500,302.906 276.500,302.906 276.500,311.406" stroke-width="3.427" stroke="black" fill="none" stroke-linecap="round"></path><path d="M 276.500,311.406 C 276.500,313.906 276.500,313.906 276.500,316.406" stroke-width="4.023" stroke="black" fill="none" stroke-linecap="round"></path><path d="M 276.500,316.406 C 276.500,318.906 276.274,318.925 276.500,321.406" stroke-width="4.590" stroke="black" fill="none" stroke-linecap="round"></path><path d="M 244.500,107.406 C 247.000,104.406 246.746,104.160 249.500,101.406" stroke-width="5.479" stroke="black" fill="none" stroke-linecap="round"></path><path d="M 249.500,101.406 C 253.746,97.160 253.969,97.371 258.500,93.406" stroke-width="4.043" stroke="black" fill="none" stroke-linecap="round"></path><path d="M 258.500,93.406 C 269.969,83.371 269.341,82.526 281.500,73.406" stroke-width="2.371" stroke="black" fill="none" stroke-linecap="round"></path><path d="M 281.500,73.406 C 293.341,64.526 293.238,63.574 306.500,57.406" stroke-width="2.075" stroke="black" fill="none" stroke-linecap="round"></path><path d="M 306.500,57.406 C 314.738,53.574 315.392,53.596 324.500,53.406" stroke-width="2.522" stroke="black" fill="none" stroke-linecap="round"></path><path d="M 324.500,53.406 C 339.392,53.096 340.022,53.018 354.500,56.406" stroke-width="2.026" stroke="black" fill="none" stroke-linecap="round"></path><path d="M 354.500,56.406 C 363.522,58.518 365.845,57.459 371.500,64.406" stroke-width="2.439" stroke="black" fill="none" stroke-linecap="round"></path><path d="M 371.500,64.406 C 383.345,78.959 382.364,81.379 389.500,99.406" stroke-width="1.979" stroke="black" fill="none" stroke-linecap="round"></path><path d="M 389.500,99.406 C 391.864,105.379 391.535,106.048 390.500,112.406" stroke-width="2.692" stroke="black" fill="none" stroke-linecap="round"></path><path d="M 390.500,112.406 C 388.035,127.548 388.301,128.193 382.500,142.406" stroke-width="2.095" stroke="black" fill="none" stroke-linecap="round"></path><path d="M 382.500,142.406 C 378.301,152.693 378.020,153.186 370.500,161.406" stroke-width="2.364" stroke="black" fill="none" stroke-linecap="round"></path><path d="M 370.500,161.406 C 356.520,176.686 356.087,176.966 339.500,189.406" stroke-width="1.735" stroke="black" fill="none" stroke-linecap="round"></path><path d="M 339.500,189.406 C 330.087,196.466 329.570,196.421 318.500,200.406" stroke-width="2.076" stroke="black" fill="none" stroke-linecap="round"></path><path d="M 318.500,200.406 C 304.570,205.421 304.145,205.128 289.500,207.406" stroke-width="2.052" stroke="black" fill="none" stroke-linecap="round"></path><path d="M 289.500,207.406 C 281.645,208.628 281.191,208.831 273.500,207.406" stroke-width="2.531" stroke="black" fill="none" stroke-linecap="round"></path><path d="M 273.500,207.406 C 267.691,206.331 267.359,205.747 262.500,202.406" stroke-width="3.017" stroke="black" fill="none" stroke-linecap="round"></path><path d="M 262.500,202.406 C 259.359,200.247 258.818,199.834 257.500,196.406" stroke-width="3.558" stroke="black" fill="none" stroke-linecap="round"></path><path d="M 257.500,196.406 C 256.318,193.334 256.043,192.454 257.500,189.406" stroke-width="3.846" stroke="black" fill="none" stroke-linecap="round"></path><path d="M 257.500,189.406 C 261.543,180.954 262.460,180.957 268.500,173.406" stroke-width="2.829" stroke="black" fill="none" stroke-linecap="round"></path><path d="M 268.500,173.406 C 272.460,168.457 272.461,168.186 277.500,164.406" stroke-width="3.090" stroke="black" fill="none" stroke-linecap="round"></path><path d="M 277.500,164.406 C 282.461,160.686 282.570,159.224 288.500,158.406" stroke-width="3.192" stroke="black" fill="none" stroke-linecap="round"></path><path d="M 288.500,158.406 C 297.070,157.224 298.231,157.399 306.500,160.406" stroke-width="2.783" stroke="black" fill="none" stroke-linecap="round"></path><path d="M 306.500,160.406 C 314.731,163.399 314.436,164.841 321.500,170.406" stroke-width="2.746" stroke="black" fill="none" stroke-linecap="round"></path><path d="M 321.500,170.406 C 330.936,177.841 330.680,178.216 339.500,186.406" stroke-width="2.439" stroke="black" fill="none" stroke-linecap="round"></path><path d="M 339.500,186.406 C 344.680,191.216 344.500,191.406 349.500,196.406" stroke-width="2.849" stroke="black" fill="none" stroke-linecap="round"></path><path d="M 349.500,196.406 C 352.000,198.906 352.955,202.951 354.500,201.406" stroke-width="3.512" stroke="black" fill="none" stroke-linecap="round"></path><path d="M 354.500,201.406 C 357.955,197.951 357.103,193.938 359.500,186.406" stroke-width="4.315" stroke="black" fill="none" stroke-linecap="round"></path><path d="M 359.500,186.406 C 360.603,182.938 359.557,180.517 361.500,179.406" stroke-width="4.628" stroke="black" fill="none" stroke-linecap="round"></path><path d="M 361.500,179.406 C 363.057,178.517 364.355,180.500 366.500,182.406" stroke-width="4.927" stroke="black" fill="none" stroke-linecap="round"></path><path d="M 366.500,182.406 C 368.855,184.500 368.254,186.845 370.500,187.406" stroke-width="4.860" stroke="black" fill="none" stroke-linecap="round"></path><path d="M 370.500,187.406 C 372.254,187.845 372.250,185.156 374.500,184.406" stroke-width="5.230" stroke="black" fill="none" stroke-linecap="round"></path><path d="M 374.500,184.406 C 376.750,183.656 377.308,185.283 379.500,184.406" stroke-width="5.173" stroke="black" fill="none" stroke-linecap="round"></path><path d="M 379.500,184.406 C 382.308,183.283 381.973,182.372 384.500,180.406" stroke-width="4.841" stroke="black" fill="none" stroke-linecap="round"></path><path d="M 384.500,180.406 C 386.473,178.872 386.527,177.187 388.500,177.406" stroke-width="5.159" stroke="black" fill="none" stroke-linecap="round"></path><path d="M 388.500,177.406 C 391.027,177.687 391.250,181.656 393.500,181.406" stroke-width="5.074" stroke="black" fill="none" stroke-linecap="round"></path><path d="M 393.500,181.406 C 395.750,181.156 395.254,176.968 397.500,176.406" stroke-width="5.091" stroke="black" fill="none" stroke-linecap="round"></path><path d="M 397.500,176.406 C 399.254,175.968 399.846,177.568 401.500,179.406" stroke-width="5.239" stroke="black" fill="none" stroke-linecap="round"></path><path d="M 401.500,179.406 C 404.346,182.568 403.731,183.134 406.500,186.406" stroke-width="4.022" stroke="black" fill="none" stroke-linecap="round"></path><path d="M 406.500,186.406 C 409.231,189.634 408.803,192.238 412.500,192.406" stroke-width="3.928" stroke="black" fill="none" stroke-linecap="round"></path><path d="M 412.500,192.406 C 419.803,192.738 422.279,192.424 428.500,187.406" stroke-width="4.094" stroke="black" fill="none" stroke-linecap="round"></path><path d="M 428.500,187.406 C 437.779,179.924 437.349,178.171 443.500,167.406" stroke-width="2.550" stroke="black" fill="none" stroke-linecap="round"></path><path d="M 443.500,167.406 C 449.349,157.171 449.766,156.889 452.500,145.406" stroke-width="2.403" stroke="black" fill="none" stroke-linecap="round"></path><path d="M 452.500,145.406 C 457.266,125.389 456.215,124.975 458.500,104.406" stroke-width="1.750" stroke="black" fill="none" stroke-linecap="round"></path><path d="M 458.500,104.406 C 459.715,93.475 461.348,92.964 459.500,82.406" stroke-width="2.231" stroke="black" fill="none" stroke-linecap="round"></path><path d="M 459.500,82.406 C 457.848,72.964 456.285,72.781 451.500,64.406" stroke-width="2.427" stroke="black" fill="none" stroke-linecap="round"></path><path d="M 451.500,64.406 C 450.285,62.281 448.710,59.659 447.500,61.406" stroke-width="3.513" stroke="black" fill="none" stroke-linecap="round"></path><path d="M 447.500,61.406 C 439.710,72.659 437.040,75.064 433.500,90.406" stroke-width="3.199" stroke="black" fill="none" stroke-linecap="round"></path><path d="M 433.500,90.406 C 429.540,107.564 431.772,108.454 432.500,126.406" stroke-width="2.075" stroke="black" fill="none" stroke-linecap="round"></path><path d="M 432.500,126.406 C 433.272,145.454 434.098,145.458 436.500,164.406" stroke-width="1.766" stroke="black" fill="none" stroke-linecap="round"></path><path d="M 436.500,164.406 C 438.598,180.958 439.204,180.878 441.500,197.406" stroke-width="2.172" stroke="black" fill="none" stroke-linecap="round"></path><path d="M 441.500,197.406 C 444.204,216.878 444.512,216.861 446.500,236.406" stroke-width="1.871" stroke="black" fill="none" stroke-linecap="round"></path><path d="M 446.500,236.406 C 447.512,246.361 447.230,246.401 447.500,256.406" stroke-width="2.270" stroke="black" fill="none" stroke-linecap="round"></path><path d="M 447.500,256.406 C 447.730,264.901 449.435,274.954 447.500,273.406" stroke-width="2.798" stroke="black" fill="none" stroke-linecap="round"></path><path d="M 447.500,273.406 C 444.435,270.954 442.307,260.977 437.500,248.406" stroke-width="3.104" stroke="black" fill="none" stroke-linecap="round"></path><path d="M 437.500,248.406 C 435.807,243.977 435.471,244.019 434.500,239.406" stroke-width="3.700" stroke="black" fill="none" stroke-linecap="round"></path><path d="M 434.500,239.406 C 433.471,234.519 433.283,234.387 433.500,229.406" stroke-width="3.583" stroke="black" fill="none" stroke-linecap="round"></path><path d="M 433.500,229.406 C 433.783,222.887 433.224,222.260 435.500,216.406" stroke-width="3.448" stroke="black" fill="none" stroke-linecap="round"></path><path d="M 435.500,216.406 C 436.724,213.260 437.575,213.287 440.500,211.406" stroke-width="3.753" stroke="black" fill="none" stroke-linecap="round"></path><path d="M 440.500,211.406 C 444.575,208.787 444.948,209.280 449.500,207.406" stroke-width="4.159" stroke="black" fill="none" stroke-linecap="round"></path><path d="M 449.500,207.406 C 453.448,205.780 453.513,205.940 457.500,204.406" stroke-width="3.802" stroke="black" fill="none" stroke-linecap="round"></path><path d="M 457.500,204.406 C 460.013,203.440 459.932,203.177 462.500,202.406" stroke-width="4.119" stroke="black" fill="none" stroke-linecap="round"></path></svg>